<?xml version="1.0" standalone="no"?>
<!DOCTYPE svg PUBLIC "-//W3C//DTD SVG 20010904//EN"
 "http://www.w3.org/TR/2001/REC-SVG-20010904/DTD/svg10.dtd">
<svg version="1.0" xmlns="http://www.w3.org/2000/svg"
 width="512.000000pt" height="512.000000pt" viewBox="0 0 512.000000 512.000000"
 preserveAspectRatio="xMidYMid meet">
<metadata>
Created by potrace 1.14, written by Peter Selinger 2001-2017
</metadata>
<g transform="translate(0.000000,512.000000) scale(0.100000,-0.100000)"
fill="#000000" stroke="none">
<path d="M1480 4531 c-108 -33 -205 -118 -254 -221 l-31 -65 -3 -1358 c-3
-1477 -5 -1404 52 -1501 35 -60 118 -134 183 -162 82 -37 177 -43 230 -16 85
44 115 137 71 222 -25 49 -89 90 -140 90 -15 0 -37 9 -48 20 -20 20 -20 33
-20 1328 0 1286 0 1309 20 1327 18 16 90 17 1325 17 1236 0 1307 -1 1325 -17
20 -18 20 -40 20 -1327 0 -1295 0 -1308 -20 -1328 -11 -11 -31 -20 -44 -20
-82 0 -166 -85 -166 -167 0 -15 9 -47 19 -70 23 -50 90 -93 144 -93 51 0 136
19 178 41 66 33 147 116 181 187 l33 67 0 1380 0 1380 -27 57 c-52 112 -127
182 -234 218 -56 20 -88 20 -1413 19 -746 0 -1367 -4 -1381 -8z"/>
<path d="M674 3681 c-23 -10 -52 -34 -65 -52 l-24 -34 0 -1130 c0 -1282 -6
-1181 85 -1370 141 -293 411 -483 730 -514 144 -14 2120 -13 2177 1 81 20 135
108 119 193 -7 37 -45 88 -80 108 -16 9 -279 13 -1126 17 l-1105 5 -65 22
c-178 60 -317 194 -382 366 l-23 62 -5 1116 -5 1116 -28 36 c-37 49 -64 66
-118 72 -31 4 -56 0 -85 -14z"/>
<path d="M2729 3665 c-155 -42 -326 -197 -355 -320 -4 -16 -11 -36 -17 -43
-15 -19 -21 -189 -8 -256 18 -96 66 -182 145 -261 39 -39 91 -80 116 -92 121
-58 119 -58 257 -58 92 0 136 4 144 13 7 6 22 12 34 12 35 0 136 67 200 133
62 64 117 160 133 233 13 61 14 198 2 246 -12 46 -20 69 -54 137 -26 56 -149
180 -201 205 -22 10 -49 23 -60 29 -69 36 -244 48 -336 22z"/>
<path d="M2745 2379 c-22 -6 -58 -16 -80 -22 -22 -7 -42 -12 -45 -12 -9 0 -75
-29 -80 -34 -3 -3 -27 -17 -53 -30 -104 -53 -308 -259 -363 -369 -11 -20 -22
-39 -25 -42 -7 -6 -44 -79 -100 -195 -42 -86 -44 -94 -42 -174 0 -46 6 -88 12
-94 6 -6 11 -19 11 -28 0 -36 75 -114 145 -149 l69 -35 305 -2 c169 -1 475 -4
681 -5 l375 -3 54 29 c57 31 110 80 128 118 42 88 45 101 40 173 -5 73 -9 84
-105 285 -49 102 -146 235 -242 331 -91 93 -221 189 -254 189 -9 0 -16 4 -16
8 0 5 -26 17 -57 26 -32 10 -71 22 -88 28 -44 14 -223 19 -270 7z"/>
</g>
</svg>
